<svg width="93" height="24" viewBox="0 0 93 24" fill="none" xmlns="http://www.w3.org/2000/svg">
<path d="M12.2606 4V7.93216H8.39314V19.818H3.82629V7.93216L0 4H12.2606Z" fill="#343F3D"/>
<path d="M15.223 10.5089V16.189L11.7944 19.818H11.7368V16.189H8.42341V19.818H4.93726V10.5089H8.42341V13.8618H11.7368V10.5089H15.223Z" fill="#343F3D"/>
<path d="M16.1855 16.8L18.5714 20H13.1428L16.1855 16.8Z" fill="#343F3D"/>
<line x1="26.5" y1="4" x2="26.5" y2="20" stroke="#343F3D"/>
<path fill-rule="evenodd" clip-rule="evenodd" d="M51.6413 6.87018V17.2001H58.3293V14.8961H54.3932V8.45904L51.6413 6.87018ZM36.3453 17.2001L34 15.846V6.80005H37.808C38.5653 6.80005 39.264 6.90672 39.904 7.12005C40.544 7.33338 41.056 7.69072 41.44 8.19205C41.8347 8.69338 42.032 9.38138 42.032 10.2561C42.032 11.0987 41.8347 11.792 41.44 12.3361C41.056 12.8694 40.544 13.2641 39.904 13.5201C39.2747 13.7761 38.5973 13.904 37.872 13.904H36.752V17.2001H36.3453ZM36.752 11.7281H37.744C38.288 11.7281 38.688 11.6 38.944 11.344C39.2107 11.0774 39.344 10.7147 39.344 10.2561C39.344 9.78672 39.2 9.45605 38.912 9.26405C38.624 9.07205 38.2133 8.97605 37.68 8.97605H36.752V11.7281ZM45.3055 12.1441L45.1295 12.864H47.0495L46.8735 12.1441C46.7455 11.6427 46.6175 11.0987 46.4895 10.5121C46.3615 9.92538 46.2335 9.37072 46.1055 8.84805H46.0415C45.9348 9.37072 45.8175 9.92538 45.6895 10.5121C45.5615 11.0987 45.4335 11.6427 45.3055 12.1441ZM41.3055 17.2001L44.4735 6.80005H47.8015L50.9695 17.2001H48.0575L47.5455 14.9921H44.6335L44.1215 17.2001H41.3055ZM59.8056 17.2001V6.80005H66.5256V9.10405H62.5576V10.7361H65.9496V13.0401H62.5576V14.8961H66.6856V17.2001H59.8056ZM70.3603 17.0774V9.10405H67.6082V6.80005H75.8643V9.10405H73.1123V15.4885L70.3603 17.0774ZM79.0715 17.2001V9.10405H76.3195V6.80005H84.5755V9.10405H81.8235V15.6552L79.1478 17.2001H79.0715ZM85.7988 17.2001V6.80005H92.5188V9.10405H88.5508V10.7361H91.9428V13.0401H88.5508V14.8961H92.6788V17.2001H85.7988Z" fill="#343F3D"/>
</svg>
