<svg width="102" height="24" viewBox="0 0 102 24" fill="none" xmlns="http://www.w3.org/2000/svg">
<path d="M18.7252 0V5.89824H12.8186V23.727H5.84378V5.89824L0 0H18.7252Z" fill="#F5F5F5"/>
<path d="M23.2494 9.76337V18.2836L18.013 23.727H17.9251V18.2836H12.8646V23.727H7.54028V9.76337H12.8646V14.7926H17.9251V9.76337H23.2494Z" fill="#F5F5F5"/>
<path d="M24.7197 19.2L28.3637 24H20.0728L24.7197 19.2Z" fill="#F5F5F5"/>
<line x1="35.25" y1="4" x2="35.25" y2="20" stroke="#F5F5F5" stroke-width="0.5"/>
<path fill-rule="evenodd" clip-rule="evenodd" d="M60.6413 7.07013V17.4H67.3293V15.096H63.3932V8.65899L60.6413 7.07013ZM45.3453 17.4L43 16.0459V7H46.808C47.5653 7 48.264 7.10667 48.904 7.32C49.544 7.53333 50.056 7.89067 50.44 8.392C50.8347 8.89333 51.032 9.58133 51.032 10.456C51.032 11.2987 50.8347 11.992 50.44 12.536C50.056 13.0693 49.544 13.464 48.904 13.72C48.2747 13.976 47.5973 14.104 46.872 14.104H45.752V17.4H45.3453ZM45.752 11.928H46.744C47.288 11.928 47.688 11.8 47.944 11.544C48.2107 11.2773 48.344 10.9147 48.344 10.456C48.344 9.98667 48.2 9.656 47.912 9.464C47.624 9.272 47.2133 9.176 46.68 9.176H45.752V11.928ZM54.3055 12.344L54.1295 13.064H56.0495L55.8735 12.344C55.7455 11.8427 55.6175 11.2987 55.4895 10.712C55.3615 10.1253 55.2335 9.57067 55.1055 9.048H55.0415C54.9348 9.57067 54.8175 10.1253 54.6895 10.712C54.5615 11.2987 54.4335 11.8427 54.3055 12.344ZM50.3055 17.4L53.4735 7H56.8015L59.9695 17.4H57.0575L56.5455 15.192H53.6335L53.1215 17.4H50.3055ZM68.8056 17.4V7H75.5256V9.304H71.5576V10.936H74.9496V13.24H71.5576V15.096H75.6856V17.4H68.8056ZM79.3603 17.2773V9.304H76.6082V7H84.8643V9.304H82.1123V15.6884L79.3603 17.2773ZM88.0715 17.4V9.304H85.3195V7H93.5755V9.304H90.8235V15.8552L88.1478 17.4H88.0715ZM94.7988 17.4V7H101.519V9.304H97.5508V10.936H100.943V13.24H97.5508V15.096H101.679V17.4H94.7988Z" fill="#F5F5F5"/>
</svg>
