<svg width="184" height="122" viewBox="0 0 184 122" fill="none" xmlns="http://www.w3.org/2000/svg">
<rect x="170.042" width="13.9586" height="13.9586" rx="6.97928" fill="#520B48"/>
<path d="M33.0131 105.597L33 95.835V67.0482C33 63.1634 36.1633 60.0217 40.048 60.0483C43.8952 60.0747 47 63.2009 47 67.0482V95.835C47 99.1092 46.9682 107.814 46.9435 114.069C46.9284 117.904 43.8146 121 39.9792 121C36.1321 121 33.0135 117.881 33.0133 114.034L33.0131 105.597Z" fill="#272727"/>
<path d="M170.041 6.9524C170.041 3.11269 173.165 0 177.02 0C180.874 0 183.999 3.11269 183.999 6.9524C183.999 10.7921 180.874 13.9048 177.02 13.9048C173.165 13.9048 170.041 10.7921 170.041 6.9524Z" fill="#FCD205"/>
<path d="M144.174 29.1667C148.109 29.1667 151.3 32.3449 151.3 36.2654V63.8009C151.3 67.2726 151.527 70.0279 153.177 71.9015C154.827 73.7752 157.25 74.712 160.444 74.712C163.638 74.712 166.086 73.7752 167.79 71.9015C169.493 70.0279 170.015 67.2726 170.015 63.8009V36.0856C170.015 32.2206 173.174 29.0947 177.054 29.1205C180.897 29.146 183.999 32.2569 183.999 36.0856V63.8009C183.999 68.9809 183.373 73.4445 181.244 77.0264C179.114 80.6083 176.13 84.0834 172.51 85.9019C168.943 87.7204 164.862 88.485 160.444 88.485C156.025 88.485 151.694 87.6653 148.181 85.9019C144.721 84.0834 141.47 80.6083 139.447 77.0264C137.424 73.3894 137.048 68.9809 137.048 63.8009V36.2654C137.048 32.3449 140.238 29.1667 144.174 29.1667Z" fill="#272727"/>
<path d="M7.12616 29.1667C11.0618 29.1667 14.2523 32.3449 14.2523 36.2654V63.8009C14.2523 67.2726 14.4794 70.0279 16.1296 71.9015C17.7798 73.7752 20.2019 74.712 23.3959 74.712C26.5899 74.712 29.0386 73.7752 30.7421 71.9015C32.4455 70.0279 32.9671 67.2726 32.9671 63.8009V36.0856C32.9671 32.2206 36.1261 29.0947 40.006 29.1205C43.8494 29.146 46.9515 32.2569 46.9515 36.0856V63.8009C46.9515 68.9809 46.3252 73.4445 44.1959 77.0264C42.0666 80.6083 39.0822 84.0834 35.4623 85.9019C31.8957 87.7204 27.8143 88.485 23.3959 88.485C18.9776 88.485 14.6466 87.6653 11.1332 85.9019C7.67305 84.0834 4.42251 80.6083 2.39965 77.0264C0.376798 73.3894 0 68.9809 0 63.8009V36.2654C0 32.3449 3.19049 29.1667 7.12616 29.1667Z" fill="#272727"/>
<path d="M92.0824 88.485C86.6153 88.485 81.59 87.218 77.0065 84.684C72.4782 82.15 68.8611 78.6245 66.1551 74.1073C63.5044 69.5351 62.179 64.412 62.179 58.738C62.179 53.0641 63.5044 47.9685 66.1551 43.4514C68.8611 38.9342 72.4782 35.4087 77.0065 32.8747C81.59 30.3407 86.6153 29.0737 92.0824 29.0737C97.5495 29.0737 102.547 30.3407 107.076 32.8747C111.659 35.4087 115.249 38.9342 117.844 43.4514C120.495 47.9685 121.82 53.0641 121.82 58.738C121.82 64.412 120.495 69.5351 117.844 74.1073C115.193 78.6245 111.604 82.15 107.076 84.684C102.547 87.218 97.5495 88.485 92.0824 88.485ZM92.0824 75.5947C96.7212 75.5947 100.421 74.0522 103.182 70.9674C105.999 67.8825 107.407 63.806 107.407 58.738C107.407 53.6149 105.999 49.5385 103.182 46.5087C100.421 43.4238 96.7212 41.8814 92.0824 41.8814C87.3885 41.8814 83.6333 43.3963 80.8169 46.4261C78.0557 49.4559 76.6751 53.5598 76.6751 58.738C76.6751 63.8611 78.0557 67.9651 80.8169 71.05C83.6333 74.0798 87.3885 75.5947 92.0824 75.5947Z" fill="#272727"/>
<rect x="170.042" y="29.1863" width="13.9586" height="59.6411" rx="6.97928" fill="url(#paint0_linear_1103_494)"/>
<rect y="107" width="24.3018" height="13.8867" rx="6.94337" fill="#272727"/>
<path d="M184 121H181.343L170.657 107.483V121H168V104H170.657L181.343 117.493V104H184V121Z" fill="#6C6C6C"/>
<path d="M156.431 109.021C155.9 108.049 155.131 107.3 154.124 106.774C153.118 106.232 151.946 105.961 150.61 105.961C149.274 105.961 148.066 106.232 146.986 106.774C145.924 107.3 145.082 108.065 144.46 109.069C143.855 110.057 143.553 111.205 143.553 112.512C143.553 113.819 143.855 114.967 144.46 115.955C145.082 116.943 145.924 117.708 146.986 118.25C148.066 118.776 149.274 119.039 150.61 119.039C152.477 119.039 154.014 118.553 155.223 117.581C156.431 116.609 157.135 115.293 157.337 113.636H149.704V111.866H160V113.54C159.854 114.911 159.359 116.17 158.517 117.318C157.675 118.45 156.568 119.35 155.195 120.02C153.822 120.673 152.294 121 150.61 121C148.834 121 147.214 120.641 145.75 119.924C144.286 119.191 143.123 118.179 142.263 116.887C141.421 115.596 141 114.138 141 112.512C141 110.886 141.421 109.428 142.263 108.136C143.123 106.829 144.286 105.817 145.75 105.1C147.214 104.367 148.834 104 150.61 104C152.642 104 154.435 104.438 155.991 105.315C157.566 106.192 158.71 107.427 159.423 109.021H156.431Z" fill="#6C6C6C"/>
<path d="M133 104V121H130V104H133Z" fill="#6C6C6C"/>
<path d="M115.624 121C114.359 121 113.223 120.809 112.216 120.428C111.226 120.03 110.448 119.49 109.879 118.806C109.311 118.107 109.018 117.304 109 116.398H111.666C111.758 117.177 112.124 117.837 112.765 118.377C113.425 118.902 114.378 119.164 115.624 119.164C116.815 119.164 117.749 118.91 118.427 118.401C119.123 117.877 119.471 117.209 119.471 116.398C119.471 115.763 119.27 115.246 118.867 114.849C118.464 114.451 117.96 114.149 117.355 113.942C116.751 113.736 115.935 113.513 114.909 113.275C113.645 112.989 112.628 112.703 111.858 112.417C111.107 112.13 110.457 111.685 109.907 111.081C109.376 110.461 109.11 109.635 109.11 108.602C109.11 107.696 109.376 106.893 109.907 106.194C110.438 105.494 111.18 104.954 112.133 104.572C113.104 104.191 114.213 104 115.459 104C117.254 104 118.72 104.389 119.856 105.168C121.011 105.947 121.661 106.98 121.808 108.268H119.059C118.968 107.632 118.583 107.076 117.905 106.599C117.227 106.106 116.329 105.86 115.211 105.86C114.167 105.86 113.315 106.098 112.655 106.575C111.996 107.036 111.666 107.688 111.666 108.53C111.666 109.134 111.858 109.627 112.243 110.008C112.646 110.39 113.132 110.684 113.7 110.891C114.286 111.081 115.101 111.304 116.146 111.558C117.41 111.86 118.427 112.162 119.197 112.464C119.966 112.75 120.626 113.203 121.175 113.823C121.725 114.427 122 115.254 122 116.303C122 117.114 121.753 117.877 121.258 118.592C120.763 119.307 120.03 119.887 119.059 120.332C118.088 120.777 116.943 121 115.624 121Z" fill="#6C6C6C"/>
<path d="M92.6693 105.827V111.501H100.12V113.328H92.6693V119.173H101V121H90V104H101V105.827H92.6693Z" fill="#6C6C6C"/>
<path d="M71.9148 104C73.9864 104 75.7763 104.35 77.2845 105.049C78.8109 105.732 79.9739 106.715 80.7734 108C81.5911 109.285 82 110.797 82 112.537C82 114.276 81.5911 115.789 80.7734 117.073C79.9739 118.341 78.8109 119.317 77.2845 120C75.7763 120.667 73.9864 121 71.9148 121H66V104H71.9148ZM71.9148 119.171C74.368 119.171 76.2396 118.593 77.5298 117.439C78.82 116.268 79.4651 114.634 79.4651 112.537C79.4651 110.423 78.8109 108.772 77.5026 107.585C76.2124 106.398 74.3498 105.805 71.9148 105.805H68.4804V119.171H71.9148Z" fill="#6C6C6C"/>
<circle cx="177" cy="7" r="7" fill="#822C76"/>
<defs>
<linearGradient id="paint0_linear_1103_494" x1="170.042" y1="68.524" x2="184" y2="41.2414" gradientUnits="userSpaceOnUse">
<stop stop-color="#282828"/>
<stop offset="1" stop-color="#822C76"/>
</linearGradient>
</defs>
</svg>
