<svg xmlns="http://www.w3.org/2000/svg" xmlns:xlink="http://www.w3.org/1999/xlink" width="487.476" height="487.476" viewBox="0 0 487.476 487.476"><defs><linearGradient id="a" x1="0.5" y1="1.217" x2="0.5" y2="0.199" gradientUnits="objectBoundingBox"><stop offset="0" stop-color="#fff"/><stop offset="0.995" stop-color="#3ac1b0" stop-opacity="0"/></linearGradient><linearGradient id="b" x1="0.869" y1="2.439" x2="0.869" y2="1.421" xlink:href="#a"/><linearGradient id="c" x1="-0.18" y1="0.513" x2="-0.18" y2="-3.345" xlink:href="#a"/><linearGradient id="d" x1="1.277" y1="10.553" x2="1.277" y2="6.695" xlink:href="#a"/><linearGradient id="e" x1="-0.091" y1="1.125" x2="-0.091" y2="-0.114" xlink:href="#a"/><linearGradient id="f" x1="1.21" y1="3.109" x2="1.21" y2="1.87" xlink:href="#a"/><linearGradient id="g" x1="-0.221" y1="-0.062" x2="-0.221" y2="-1.301" xlink:href="#a"/><linearGradient id="h" x1="1.34" y1="4.296" x2="1.34" y2="3.057" xlink:href="#a"/></defs><g transform="translate(-6.262 -6.262)"><path d="M256.443,223.637H243.557L221.325,6.262h57.35Z" fill="url(#a)"/><path d="M243.557,276.362h12.886l22.232,217.376h-57.35Z" fill="url(#b)"/><path d="M276.362,256.443V243.557l217.376-22.232v57.35Z" fill="url(#c)"/><path d="M223.637,243.557v12.886L6.262,278.675v-57.35Z" fill="url(#d)"/><path d="M273.2,235.914l-9.111-9.111L402.072,57.375l40.553,40.553Z" fill="url(#e)"/><path d="M226.8,264.086l9.111,9.111L97.928,442.625,57.375,402.072Z" fill="url(#f)"/><path d="M264.086,273.2l9.111-9.111L442.625,402.072l-40.553,40.553Z" fill="url(#g)"/><path d="M235.914,226.8l-9.111,9.111L57.375,97.928,97.928,57.375Z" fill="url(#h)"/><path d="M270.656,155.172s4.815-8.6,10.833-4.917c9.792,6,6.667,19.5,6.667,19.5l-2.25-6s3,9.5-1.75,16l.5-6.25s-3.75,9-10.5,10-7.75,1-8.5,5,4.738,6.659,3,6.375c-6.125-1-5.5-8.75-5.5-8.75l-1,5.625s-7.75-15-7.25-22a25.852,25.852,0,0,1,3.75-11.75l-4,1.5S266.656,140.422,270.656,155.172Z" fill="#333"/><path d="M276.564,176.028c3.21-5.8,8.092-12.272-3.325-18.272-1.839-.967-6.19-.219-7.917-.292-1.2-.051-1.344,1.221-2.424,1.386a20.225,20.225,0,0,0-12.332,7.36s7.221,11.045-14.255,25.065c-2.509,1.638,15.413,29.705,17.178,19.314C259.489,175.255,274.637,179.51,276.564,176.028Z" fill="#eabfa5"/><path d="M257.906,161.214s3.5-.958,7.393,4.146a.9.9,0,0,1-.429,1.429,13.262,13.262,0,0,1-7.631.133C252.167,165.162,257.906,161.214,257.906,161.214Z" fill="#d84744"/><path d="M264.87,166.789c.024-.007.036-.026.059-.035a4.3,4.3,0,0,0-2.523-.812,4.173,4.173,0,0,0-3.183,1.414A15.031,15.031,0,0,0,264.87,166.789Z" fill="#822a2a"/><path d="M264.573,166.172s-3.417-3.333-7.083-3.667c0,0,3.333.958-.167,1.083,0,0-1-.5-.5-1.333a8.359,8.359,0,0,1,1-.833,1.084,1.084,0,0,1,.776-.223A6.751,6.751,0,0,1,264.573,166.172Z" fill="#eef9f9"/><path d="M255.593,165.943c-.009.007-.017.021-.026.029a4.3,4.3,0,0,0,1.671.95,9.221,9.221,0,0,0,1.961.431c.005-.011.018-.035.018-.035s.563-.5-.125-1.125A3.762,3.762,0,0,0,255.593,165.943Z" fill="#eef9f9"/><path d="M257.239,166.922a11,11,0,0,0,4.723.43,6.738,6.738,0,0,0-3.118-.722,7.457,7.457,0,0,0-1.8.218C257.112,166.873,257.171,166.9,257.239,166.922Z" fill="#ffabab"/><path d="M250.1,177.494c.847,8.2-3.777,26.256-4.879,30.4.146.174.291.348.436.516l9.261-4.844c4.218-17.5,11.02-22.593,15.914-24.778-1.862-.853-3.772-1.754-5.679-2.694-11.5-5.667-14.589-9.879-14.589-9.879S253.464,170.661,250.1,177.494Z" fill="#d8a98f"/><path d="M276.656,174.339s2.417.583.583,3.083-7.5,2.583-6.083-.583S276.656,174.339,276.656,174.339Z" fill="#eabfa5"/><path d="M269.156,162.005s4.75-2.25,6.125,3.75A5.77,5.77,0,0,0,269.156,162.005Z" fill="#822a2a"/><path d="M271.156,160.505s6.667-1.75,6,4.417A5.8,5.8,0,0,0,271.156,160.505Z" fill="#333"/><path d="M264.614,157.38s3.75.167,3.971,2.25C268.585,159.63,269.156,155.255,264.614,157.38Z" fill="#333"/><path d="M266.81,160.273s.513-2.726-4.237-1.059C262.573,159.214,265.614,158.672,266.81,160.273Z" fill="#822a2a"/><path d="M263.969,160.38l-.788-.732s.35-.893,2.475-.081a5.582,5.582,0,0,0,3.563.313l-3.875,2.813Z" fill="#f7cab2"/><path d="M261.969,160.693l1.212-1.044a.876.876,0,0,1,1.414.423l.749,2.621A6.257,6.257,0,0,0,261.969,160.693Z" fill="#d8a98f"/><path d="M276.156,175.443s.375,2.313-2.875,2.313c0,0,1.563-.688,1.25-1.313s-1.188-.563-1.188-.563,1.625-.125,1.75.25a2.366,2.366,0,0,1,.063.875Z" fill="#d8a98f"/><path d="M272.031,173.755s5-.625,5.5-4.125a9.62,9.62,0,0,0,3.542-2.125c1.55-1.472-2.667,8.125-2.667,8.125s-1-1.75-5.5.25Z" fill="#333"/><path d="M279.843,57.262c1.265,2.467,4.849,1.956,7.26.185a7.071,7.071,0,0,0,2.578-7.029c-1.026-6.29-8.386-9.051-15.247-5.829-8.767,4.116-10.933,12.538-11.175,20.017C263.14,68.28,264.732,75,259.124,76.7c-3.542,1.074-5.324-1.84-6.089-4.187-.514-1.577-.443-3.952,2.057-4.6,2.41-.626,4.133,2.14,1.118,2.077q.221,1.305.442,2.61l.525-.269c1.957-1,.207-3.326-1.744-2.325l-.525.269a1.367,1.367,0,0,0,.442,2.61c2.351.05,5.466-.57,6.181-3,.673-2.286-1.577-4.446-3.9-4.909a7.478,7.478,0,0,0-7.312,3.077c-1.871,2.751-.734,5.9.769,8.262a6.971,6.971,0,0,0,7.5,3.435,9.427,9.427,0,0,0,7.232-5.316c1.419-3.273.727-6.87.83-10.162.14-4.469.7-9.494,4.154-13.388,3.186-3.591,9.4-6.73,13.517-3.42a5.927,5.927,0,0,1,2.1,4.593,4.319,4.319,0,0,1-.591,2.442c-.234.345-2.536,2.038-2.726,1.668-.831-1.623-4.1-.55-3.261,1.093Z" fill="#e5a920"/><path d="M308.372,91.786,302.705,74.88l-1.811-5.4-5.667-16.906a2.332,2.332,0,0,0-4.349,1.458l.067.2h0a19.246,19.246,0,0,0-9.938,7.332,20.792,20.792,0,0,0-3.317,8.156c-.691,4.333-4.131,8.223-8.965,9.844l-.311.1a13.965,13.965,0,0,1-9.4-.078l-3.238-1.257a6.834,6.834,0,0,0-4.6-.038l2.366,7.059,1.811,5.4,2.366,7.059a6.835,6.835,0,0,0,3.648-2.8l1.826-2.955a13.962,13.962,0,0,1,7.455-5.729l.311-.1c4.834-1.62,9.923-.59,13.087,2.451a20.784,20.784,0,0,0,7.563,4.509,19.252,19.252,0,0,0,12.349-.139h0l.067.2a2.333,2.333,0,0,0,4.35-1.458Z" fill="#e5a920"/><path d="M277.783,77.4c1.654-1.681,4.472-5.526,6.066-7.359a22.983,22.983,0,0,1,8.908-5.974c.436-.171,10.856,29.436,11.3,29.286l-9.979-29.767-.051-.152c-.253-.755.515-1.694,1.716-2.1s2.38-.117,2.633.639l-3.153-9.406a2.332,2.332,0,0,0-4.349,1.458l.067.2h0a19.246,19.246,0,0,0-9.938,7.332,20.792,20.792,0,0,0-3.317,8.156c-.691,4.333-4.131,8.223-8.965,9.844l-.311.1a13.965,13.965,0,0,1-9.4-.078l-3.238-1.257a6.834,6.834,0,0,0-4.6-.038l2.348,7a58.288,58.288,0,0,1,7.246-1.234S275.046,80.185,277.783,77.4Z" fill="#c68d1a"/><path d="M293.271,97.317c-.478-2.731,2.691-4.483,5.682-4.524a7.071,7.071,0,0,1,6.294,4.055c2.973,5.638-1.237,12.277-8.653,13.841-9.477,2-16.281-3.416-20.982-9.237-2.31-2.86-5.09-9.181-10.589-7.158-3.473,1.278-3.139,4.677-2.335,7.011.54,1.568,2.028,3.421,4.415,2.432,2.3-.953,2.008-4.2-.359-2.331l-1.221-2.349.581-.1c2.167-.378,2.17,2.53.01,2.907l-.581.1a1.367,1.367,0,0,1-1.221-2.349c1.846-1.457,4.7-2.84,6.739-1.334,1.915,1.418,1.422,4.5-.153,6.267a7.476,7.476,0,0,1-7.689,1.951c-3.152-1.067-4.144-4.268-4.366-7.056a6.97,6.97,0,0,1,3.911-7.259,9.428,9.428,0,0,1,8.975-.117c3.105,1.756,4.721,5.044,6.787,7.608,2.806,3.482,6.28,7.154,11.384,8.179,4.707.945,11.558-.3,12.847-5.418a5.93,5.93,0,0,0-1.09-4.934,4.332,4.332,0,0,0-1.943-1.593c-.394-.134-3.252-.1-3.18.312.313,1.8-2.945,2.914-3.263,1.1Z" fill="#e5a920"/><path d="M293.08,72.371a1.713,1.713,0,0,0,1.239-.744,1.771,1.771,0,0,0,.356-.863.779.779,0,0,0-.077-.4.352.352,0,0,0-.022-.036.121.121,0,0,0-.012-.019h0c-.267-.379-1.811-1.99-3.153-2.021a.775.775,0,0,0-.188-.457.387.387,0,0,0-.039-.042,4.383,4.383,0,0,0-3.237-.746.746.746,0,0,0-.226-.262.713.713,0,0,0-.109-.068,3.788,3.788,0,0,0-3.1.489.768.768,0,0,0-.323-.146.468.468,0,0,0-.069-.008l-.034,0v0a3.76,3.76,0,0,0-2.649,1.686.792.792,0,0,0-.239-.019.557.557,0,0,0-.085.014.8.8,0,0,0-.125.035l0,.008a4.253,4.253,0,0,0-1.925,2.785.7.7,0,0,0-.134.03.487.487,0,0,0-.1.043.713.713,0,0,0-.182.121l.011.012a5.367,5.367,0,0,0-.918,3.849,2.891,2.891,0,0,0,.085.3,2.13,2.13,0,0,0,1.759,1.521,2.381,2.381,0,0,0,.409.21,1.818,1.818,0,0,0,1.987-.261,4.827,4.827,0,0,0,1.084-1.959l.02-.058a.762.762,0,0,0,.061-.447c-.005-.028-.011-.055-.018-.082a4.663,4.663,0,0,0,1.148-1.075.77.77,0,0,0,.213-.411,4.161,4.161,0,0,0,1.33-.5.756.756,0,0,0,.337-.272,4.5,4.5,0,0,0,1.42.066.762.762,0,0,0,.435-.124,5.753,5.753,0,0,0,1.432.656.764.764,0,0,0,.508.046,7.589,7.589,0,0,0,1.3,1.265l.07.056a.765.765,0,0,0,1.138-.054A2.268,2.268,0,0,0,293.08,72.371Zm-5.627,14.99a.765.765,0,0,0,.179-.16,3.758,3.758,0,0,0,3.13-.25h0l.026-.022.05-.047a.769.769,0,0,0,.17-.313,3.8,3.8,0,0,0,2.766-1.475.792.792,0,0,0,.068-.467,4.312,4.312,0,0,0,2.133-2.539c0-.016,0-.031.005-.046a.751.751,0,0,0-.125-.5c1.046-.847,1.312-3.048,1.3-3.506h0c0-.006,0-.012,0-.018a.338.338,0,0,0-.005-.044.778.778,0,0,0-.191-.383,1.777,1.777,0,0,0-.79-.462,1.708,1.708,0,0,0-1.442.153,2.269,2.269,0,0,0-1.771-1.322.765.765,0,0,0-.942.642l-.022.087a7.562,7.562,0,0,0-.272,1.79.771.771,0,0,0-.4.387l-.006,0a5.532,5.532,0,0,0-.719,1.347.764.764,0,0,0-.675.529.708.708,0,0,1,.231-.351,4.381,4.381,0,0,0-1.07.894.77.77,0,0,0-.484,0,.256.256,0,0,1,.024-.011,4.088,4.088,0,0,0-1.334.4.764.764,0,0,0-.453-.2v0a4.512,4.512,0,0,0-1.528-.157.657.657,0,0,0-.035-.076.761.761,0,0,0-.318-.32l-.051-.034a4.828,4.828,0,0,0-2.051-.911,1.819,1.819,0,0,0-1.739.991,2.356,2.356,0,0,0-.2.413,2.127,2.127,0,0,0-.488,2.273,2.928,2.928,0,0,0,.115.291,5.376,5.376,0,0,0,3.055,2.521l0,.016a.722.722,0,0,0,.218-.013.552.552,0,0,0,.1-.024.674.674,0,0,0,.125-.057,4.258,4.258,0,0,0,3.214,1.062l0,.008a.663.663,0,0,0,.121-.048A.555.555,0,0,0,287.453,87.361Zm2.435-6.463a.785.785,0,0,1,.014-.087.6.6,0,0,0-.012.087Zm-1.763.839a.815.815,0,0,1,.061-.126.7.7,0,0,0-.057.128Z" fill="#c68d1a"/><path d="M284.884,69.85c.02,0-.678-1.067-.064-1.869.636-.854,2.462-.63,2.448-.585A7.431,7.431,0,0,0,284.884,69.85Z" fill="#efb135"/><path d="M286.923,69.153a5.522,5.522,0,0,1-2.038.7,7.431,7.431,0,0,1,2.384-2.454A1.783,1.783,0,0,1,286.923,69.153Z" fill="#fcc34f"/><path d="M284.942,70.024a2.487,2.487,0,0,0,.915,1.625,3.273,3.273,0,0,0,1.745.234A8.183,8.183,0,0,0,284.942,70.024Z" fill="#fcc34f"/><path d="M287.034,70.09a2.169,2.169,0,0,0-2.092-.065,8.172,8.172,0,0,1,2.66,1.859A2.227,2.227,0,0,0,287.034,70.09Z" fill="#efb135"/><path d="M287.561,69.561c.02.01-.4-1.227.436-1.705.866-.521,2.673.438,2.65.477A6.285,6.285,0,0,0,287.561,69.561Z" fill="#efb135"/><path d="M289.815,69.758a6.648,6.648,0,0,1-2.254-.2,6.29,6.29,0,0,1,3.085-1.229C290.665,68.35,290.681,69.539,289.815,69.758Z" fill="#fcc34f"/><path d="M287.572,69.74a2.5,2.5,0,0,0,.487,1.822,4.445,4.445,0,0,0,1.712.923A10.138,10.138,0,0,0,287.572,69.74Z" fill="#fcc34f"/><path d="M289.675,70.643a2.667,2.667,0,0,0-2.1-.9,10.138,10.138,0,0,1,2.2,2.745A2,2,0,0,0,289.675,70.643Z" fill="#efb135"/><path d="M290.359,70.392c.019.019-.077-1.269.912-1.335,1.031-.1,2.674,1.617,2.643,1.651A6.671,6.671,0,0,0,290.359,70.392Z" fill="#efb135"/><path d="M292.652,71.585a10.473,10.473,0,0,1-2.294-1.192,6.669,6.669,0,0,1,3.555.315A1.087,1.087,0,0,1,292.652,71.585Z" fill="#fcc34f"/><path d="M290.322,70.557a2.19,2.19,0,0,0,.008,1.838,6.679,6.679,0,0,0,1.541,1.616A12,12,0,0,0,290.322,70.557Z" fill="#fcc34f"/><path d="M292.266,72.311a3.653,3.653,0,0,0-1.944-1.754,12,12,0,0,1,1.549,3.454A1.574,1.574,0,0,0,292.266,72.311Z" fill="#efb135"/><path d="M279.813,76.691a1.421,1.421,0,0,1-1.318-1.252,5.032,5.032,0,0,1,.676-3.127A14.832,14.832,0,0,0,279.813,76.691Z" fill="#efb135"/><path d="M280.224,73.892a12.928,12.928,0,0,1-.411,2.8,14.8,14.8,0,0,1-.642-4.378A1.886,1.886,0,0,1,280.224,73.892Z" fill="#fcc34f"/><path d="M279.958,76.747c0,.03.906.627,1.513.073a5.144,5.144,0,0,0,.93-1.778A5.016,5.016,0,0,0,279.958,76.747Z" fill="#fcc34f"/><path d="M280.917,74.418c-.8.376-1,2.327-.959,2.329a5.016,5.016,0,0,1,2.443-1.705C282.4,75.067,281.671,74.046,280.917,74.418Z" fill="#efb135"/><path d="M280.788,73.49a1.76,1.76,0,0,1-.979-1.629,3.666,3.666,0,0,1,1.453-2.384A12.033,12.033,0,0,0,280.788,73.49Z" fill="#efb135"/><path d="M281.9,71.3a8.329,8.329,0,0,1-1.109,2.193,12.041,12.041,0,0,1,.474-4.014A2.1,2.1,0,0,1,281.9,71.3Z" fill="#fcc34f"/><path d="M280.916,73.6c-.006.024.731.927,1.467.738.706-.185,1.336-1.125,1.362-1.119A5.1,5.1,0,0,0,280.916,73.6Z" fill="#fcc34f"/><path d="M282.444,72.048c-.881,0-1.565,1.542-1.528,1.553a5.1,5.1,0,0,1,2.828-.381C283.733,73.239,283.279,72.044,282.444,72.048Z" fill="#efb135"/><path d="M282.553,71.185a1.911,1.911,0,0,1-.548-1.839c.353-1.1,2.05-1.587,2.046-1.538A9.5,9.5,0,0,0,282.553,71.185Z" fill="#efb135"/><path d="M284.206,69.691a6.04,6.04,0,0,1-1.654,1.493,9.509,9.509,0,0,1,1.5-3.378A2.048,2.048,0,0,1,284.206,69.691Z" fill="#fcc34f"/><path d="M282.65,71.336c-.012.018.483,1.12,1.254,1.259a2.947,2.947,0,0,0,1.631-.447A6.329,6.329,0,0,0,282.65,71.336Z" fill="#fcc34f"/><path d="M284.553,70.582c-.871-.349-1.937.734-1.9.754a6.329,6.329,0,0,1,2.885.812C285.52,72.16,285.38,70.91,284.553,70.582Z" fill="#efb135"/><path d="M289.706,84.234c.015-.014.1,1.26,1.076,1.53,1.022.3,2.344-.982,2.306-1.008A7.46,7.46,0,0,1,289.706,84.234Z" fill="#efb135"/><path d="M291.753,83.562a5.51,5.51,0,0,0-2.047.672,7.433,7.433,0,0,0,3.382.521C293.1,84.736,292.651,83.6,291.753,83.562Z" fill="#fcc34f"/><path d="M289.647,84.06a2.484,2.484,0,0,1-.249-1.848,3.271,3.271,0,0,1,1.251-1.239A8.178,8.178,0,0,1,289.647,84.06Z" fill="#fcc34f"/><path d="M291.277,82.747c-.229.992-1.636,1.355-1.63,1.313a8.161,8.161,0,0,0,1-3.087A2.228,2.228,0,0,1,291.277,82.747Z" fill="#efb135"/><path d="M292.016,82.851c.01-.02.423,1.219,1.375,1.1,1.005-.106,1.869-1.96,1.827-1.977A6.285,6.285,0,0,1,292.016,82.851Z" fill="#efb135"/><path d="M293.7,81.335a6.644,6.644,0,0,0-1.68,1.516,6.286,6.286,0,0,0,3.2-.879C295.223,81.947,294.519,80.988,293.7,81.335Z" fill="#fcc34f"/><path d="M291.917,82.7a2.5,2.5,0,0,1-.71-1.747,4.427,4.427,0,0,1,.81-1.769A10.154,10.154,0,0,1,291.917,82.7Z" fill="#fcc34f"/><path d="M293.051,80.714a2.667,2.667,0,0,1-1.134,1.987,10.129,10.129,0,0,0,.1-3.516A2.006,2.006,0,0,1,293.051,80.714Z" fill="#efb135"/><path d="M293.748,80.5c0-.026.7,1.059,1.533.516.883-.541,1.159-2.9,1.114-2.91A6.681,6.681,0,0,1,293.748,80.5Z" fill="#efb135"/><path d="M294.859,78.168a10.444,10.444,0,0,0-1.112,2.334,6.675,6.675,0,0,0,2.647-2.394A1.085,1.085,0,0,0,294.859,78.168Z" fill="#fcc34f"/><path d="M293.619,80.393a2.193,2.193,0,0,1-1.1-1.471,6.635,6.635,0,0,1,.256-2.218A12.013,12.013,0,0,1,293.619,80.393Z" fill="#fcc34f"/><path d="M294.113,77.821a3.653,3.653,0,0,1-.494,2.571,11.955,11.955,0,0,0-.846-3.689A1.572,1.572,0,0,1,294.113,77.821Z" fill="#efb135"/><path d="M281.537,81.831a1.42,1.42,0,0,0-.3,1.793,5.021,5.021,0,0,0,2.424,2.087A14.782,14.782,0,0,1,281.537,81.831Z" fill="#efb135"/><path d="M283.551,83.817a12.977,12.977,0,0,0-2.015-1.986,14.785,14.785,0,0,0,2.127,3.88A1.884,1.884,0,0,0,283.551,83.817Z" fill="#fcc34f"/><path d="M281.618,81.7c-.017-.025.345-1.047,1.164-.971a5.129,5.129,0,0,1,1.814.859A5.009,5.009,0,0,1,281.618,81.7Z" fill="#fcc34f"/><path d="M283.788,82.98c-.865.182-2.2-1.256-2.169-1.281a5.013,5.013,0,0,0,2.977-.112C284.577,81.571,284.613,82.822,283.788,82.98Z" fill="#efb135"/><path d="M284.244,83.8a1.759,1.759,0,0,0,.2,1.89,3.67,3.67,0,0,0,2.6,1.027A12.033,12.033,0,0,1,284.244,83.8Z" fill="#efb135"/><path d="M286.45,84.88a8.284,8.284,0,0,0-2.206-1.081,12.033,12.033,0,0,0,2.8,2.917A2.1,2.1,0,0,0,286.45,84.88Z" fill="#fcc34f"/><path d="M284.279,83.632c-.019-.016.024-1.181.726-1.473a3.437,3.437,0,0,1,1.761.072A5.093,5.093,0,0,1,284.279,83.632Z" fill="#fcc34f"/><path d="M286.434,83.951c-.7.535-2.178-.287-2.156-.318a5.111,5.111,0,0,0,2.487-1.4C286.745,82.223,287.1,83.45,286.434,83.951Z" fill="#efb135"/><path d="M287.041,84.574a1.912,1.912,0,0,0,.671,1.8,3,3,0,0,0,2.56-.006A9.494,9.494,0,0,1,287.041,84.574Z" fill="#efb135"/><path d="M289.261,84.769a6.051,6.051,0,0,0-2.22-.195,9.511,9.511,0,0,0,3.231,1.792A2.05,2.05,0,0,0,289.261,84.769Z" fill="#fcc34f"/><path d="M287.028,84.395a2.182,2.182,0,0,1,.242-1.761,2.939,2.939,0,0,1,1.571-.626A6.338,6.338,0,0,1,287.028,84.395Z" fill="#fcc34f"/><path d="M289,83.849c-.484.8-1.988.582-1.973.546a6.337,6.337,0,0,0,1.813-2.387C288.821,82.007,289.463,83.09,289,83.849Z" fill="#efb135"/><rect width="40.76" height="6.76" transform="translate(249.12 68.329) rotate(71.469)" fill="#846c5d"/><rect width="50.958" height="14.958" transform="translate(246.119 117.733) rotate(-108.531)" fill="#846c5d"/><rect width="33.985" height="8.151" transform="translate(247.233 108.409) rotate(-108.531)" fill="#fcc34f"/><path d="M296.96,231.587a13.079,13.079,0,0,1-7.646-4.8l-6.491,9.138-6-25.333c-1.787-7.146-9.6-12.808-17.144-16.742-16.9,5.033-16.339-10.33-16.022-13.342-3.278-19.764,11.2-36.573,23.863-52.383l-14.2-4.868c-53.9,49.2-58.884,130.967-58.884,130.967l65.376,9.7c-10.158-12.165,1.342-18.832-4.479-19.509-1.234-.144,1.766-2.544,1.987-3.656.209-1.053-1.047-1.92-.746-2.859a24.99,24.99,0,0,1,7.246-11.308c.376,31.606,20.333,38.667,20.333,38.667Z" fill="#3ac1b0"/><path d="M247.96,202.377a1.2,1.2,0,0,0-1.568.564c-.162.528.277,1.131.981,1.348a1.2,1.2,0,0,0,1.568-.564C249.1,203.2,248.664,202.594,247.96,202.377Zm-3.081,8.348c.162-.528-.277-1.131-.981-1.348a1.2,1.2,0,0,0-1.568.564c-.162.528.277,1.131.981,1.348A1.2,1.2,0,0,0,244.879,210.725Zm-.65,8.733c-.736,0-1.333.448-1.333,1s.6,1,1.333,1,1.333-.448,1.333-1S244.966,219.458,244.229,219.458Zm-.972,8.053a1.389,1.389,0,1,0,1.422.869A1.2,1.2,0,0,0,243.257,227.511Zm-6.132,6.623a1.042,1.042,0,1,0,.655,1.533A1.2,1.2,0,0,0,237.125,234.134Z" fill="#4addc7"/><path d="M236.371,243.735l-.242-.97c2.122-.531,2.251-5.036,2.123-6.727l-.015-.191,2.692-3.5.112-.052c.06-.027,5.981-2.745,7.431-3.711.33-.381-.593-2.956-1.267-4.835-1.155-3.221-2.592-7.23-2.455-10.52a12.045,12.045,0,0,1,5.116-9.159l-1.548-3.354.511-.186a18.187,18.187,0,0,0,3.858-1.921.406.406,0,0,0,.19-.345c0-.527-.8-1.319-1.186-1.62l.614-.789c.16.124,1.563,1.249,1.571,2.4a1.41,1.41,0,0,1-.565,1.134,16.509,16.509,0,0,1-3.634,1.885l1.463,3.171-.384.231a11.292,11.292,0,0,0-5.008,8.593c-.129,3.094,1.272,7,2.4,10.14,1.189,3.317,1.908,5.32.88,6.005-1.419.946-6.6,3.342-7.456,3.737l-2.31,3C239.322,237.306,239.463,242.962,236.371,243.735Z" fill="#39aa99"/><path d="M290.656,231.255l-13,24.5c-13.5-18.25-12.75-35.5-12.75-35.5-6,29.25,18.75,43.75,18.75,43.75l10.75-29.5Z" fill="#39aa99"/><path d="M199.489,251.922c.333,4,4.333-1.667,4.333-1.667s.667-16.333.333-18.333S199.489,251.922,199.489,251.922Z" fill="#39aa99"/><path d="M254.489,243.922c-.4-3.581-68.333-36.167,1.5-101.5,0,0-16.122,5.188-15.833,1.333a23.055,23.055,0,0,1,3.783-11.1c-11.324,12.434-33.254,48.09-27.033,77.845,6.917,33.083,27.083,33.583,27.083,33.583a28.6,28.6,0,0,1-17.833-23.5S232.823,236.589,254.489,243.922Z" fill="#39aa99"/><path d="M248.281,198.505c1,.337-3.314-3.437-3.875-5.375a5.931,5.931,0,0,1,.271-4.1,18.391,18.391,0,0,1-1.109-7.14c-2.38,2.62-9.912,11.493-9.912,18.86,0,0,4.375-12.375,8.875-13.375C242.531,187.38,240.531,195.88,248.281,198.505Z" fill="#39aa99"/><path d="M261.906,220.255c-7.5,10.5-18.75,3-18.75,3l12.25,14.5s3.25-9.75,8.25-14.25l3.75-10S263.478,218.055,261.906,220.255Z" fill="#39aa99"/><path d="M275.156,237.005l7-3.25-9.5,2.25,2,9.25Z" fill="#39aa99"/><path d="M252.281,193.38l.625-1.25,3.375-1.5,4.188,1.563,2.688,4s-7.563.188-9.625-.813S252.281,193.38,252.281,193.38Z" fill="#39aa99"/><path d="M250.156,194.089l5.667-3,2.083,7.916,7.375-2.25-.375-5.75-8.917-1.083Z" fill="#4addc7"/><path d="M254.281,194.005s16.5,19.375,35.125,8.125c0,0-7.625,10.125-16.5,8.25s-18-10.5-19.375-15.25Z" fill="#db7631"/><path d="M252.323,192.589s12.333,37.333,45.333,7c0,0,2.319-3.556,1.894-14.094a.739.739,0,0,0-1.115-.61l-10.113,6.038s-4.185,23.174-20.333,17C256.656,203.589,252.323,192.589,252.323,192.589Z" fill="#b64e00"/><path d="M248.406,192.839s3-2.333,4.667-1.333a10.725,10.725,0,0,1,2.917,2.917l-2,1.917A7.509,7.509,0,0,1,248.406,192.839Z" fill="#b64e00"/><path d="M246.823,188.089a6.462,6.462,0,0,0,3.333,5.25s2.583,1.417,1.167,1.667-3.667-1.417-4.667-4.083S246.823,188.089,246.823,188.089Z" fill="#db7631"/><path d="M248.239,193.505l3.083-5.667-6.667-8.083-1,.5S242.739,190.839,248.239,193.505Z" fill="#4addc7"/><path d="M253.322,123.255l14.2,4.868,0,0A208.367,208.367,0,0,1,282.184,111.7l6.1-.94,2.333-2.708,1.708.042s1.023-.805.792-1.5c-.75-2.25-2.283-1.44-2.875-2.625-1.11-2.219-2.331-4.7-2.75-5.708-.649-1.559-.609-3.762-2.833-3.5-12.75,1.5-7.5,10-10.638,12.922a135.516,135.516,0,0,0-23.165,17.887Q252.07,124.4,253.322,123.255Z" fill="#eabfa5"/><path d="M301.406,206.255h-13.75l-3.5,4.5s.25,2.75,2.5,3.25c1.01.224,1.564-.458,1.871-1.279.445,3.058,3.852,6.91,5,8.13l-4.21,5.927a13.079,13.079,0,0,0,7.646,4.8l3.7-9.719C303.156,215.981,301.406,206.255,301.406,206.255Z" fill="#eabfa5"/><path d="M194.156,249.922s19-18.667,64.935-1.807l-1.935,5.141s43.683,20.047,54.837,54.3L250.24,332.628l5.843,17.944s-2.466,3.509-7.313-1.679-13.392-24.507-13.392-24.507L282.5,297.317s-24.868-22.35-52.24-16.369c0,0-29.334,44.283-17.535,102.688,0,0,1.158,28.491-6.971,27.078s-3.339-26.879-3.339-26.879S176.526,327.382,194.156,249.922Z" fill="#333"/><path d="M256.489,117.589s7.667-9.333,15,7.333l-6.333,9.333s-7-11.667-17.333-8.333Z" fill="#4addc7"/><path d="M287.857,225.422s5.431,6.167,11.466,5.5l-5.129,14s-8.75.167-12.371-12.5Z" fill="#4addc7"/><path d="M231.667,434.258a248.323,248.323,0,0,1-8.581-26.128c-2.413-8.853-4.341-17.836-5.923-26.877l-1.049-6.8-.815-6.837c-.3-2.276-.47-4.566-.637-6.855-.15-2.29-.41-4.574-.432-6.871a168.969,168.969,0,0,1,1.067-27.474l-.415,6.86c-.055,1.143-.184,2.282-.178,3.427l-.01,3.433-.03,3.431c-.011,1.143-.038,2.287.036,3.43l.3,6.854a251.257,251.257,0,0,0,3.15,27.243c1.494,9.025,3.43,17.975,5.678,26.847,1.132,4.435,2.336,8.852,3.653,13.237C228.746,425.573,230.167,429.927,231.667,434.258Z" fill="#333" opacity="0.2"/><path d="M234.523,416.414c-1.615-3.481-2.981-7.071-4.242-10.7s-2.331-7.314-3.35-11.015c-.95-3.72-1.81-7.465-2.47-11.248a105.3,105.3,0,0,1-1.408-11.421c.38,1.883.613,3.782,1.03,5.652l.529,2.818.6,2.8c.812,3.733,1.659,7.46,2.681,11.142.933,3.7,2.006,7.373,3.112,11.033q.823,2.746,1.715,5.475C233.292,412.786,233.911,414.6,234.523,416.414Z" fill="#333" opacity="0.2"/><ellipse cx="34.197" cy="3.516" rx="34.197" ry="3.516" transform="translate(215.803 446.496)" fill="#333" opacity="0.3"/><g opacity="0.3"><path d="M314.311,293.024c2.076,3.3,4.016,6.673,5.94,10.053q2.85,5.088,5.578,10.239l.475.9-.94.423c-2.66,1.2-5.309,2.42-7.989,3.572-2.667,1.18-5.354,2.318-8.045,3.445-5.394,2.227-10.809,4.408-16.344,6.32,5.128-2.827,10.375-5.384,15.643-7.9,2.64-1.243,5.284-2.475,7.948-3.664,2.651-1.217,5.334-2.363,8.005-3.536l-.465,1.319q-2.6-5.215-5.084-10.493C317.4,300.172,315.789,296.633,314.311,293.024Z" fill="#333"/></g><path d="M160.061,46.606c-2.367-2.358-4.193-4.386-4.292-7.887-.085-3.027.676-6.024.731-9.052.035-1.931-2.965-1.931-3,0-.071,3.915-1.345,7.986-.417,11.874.713,2.985,2.746,5.084,4.857,7.187A1.5,1.5,0,0,0,160.061,46.606Z" fill="#3ac1b0"/><path d="M168.887,99.268c-.4,1.024-1.838,1.844-2.7,2.42-1.067.716-2.182,1.351-3.28,2.017-1.648,1-.143,3.6,1.514,2.59,2.6-1.58,6.188-3.21,7.356-6.23C172.477,98.264,169.577,97.483,168.887,99.268Z" fill="#3ac1b0"/><path d="M111.658,86.273c-1.13,1.434-1.954,3.246-1.015,5,1.011,1.89,2.521,1.651,4.194,1.771-.165,1.553-1.306,3.19-1.469,4.691a4.214,4.214,0,0,0,1.238,3.657c1.329,1.406,3.448-.718,2.121-2.121-1.124-1.189.426-3.537.782-4.747a6.244,6.244,0,0,0,.2-3.189,1.47,1.47,0,0,0-1.048-1.048c-1.364-.29-3.848.331-2.854-1.874.574-1.273,3.435-3.643,4.8-2.354,1.4,1.326,3.528-.792,2.121-2.121C117.685,81.064,113.841,83.5,111.658,86.273Z" fill="#3ac1b0"/><path d="M349.3,49.582l.639.2a1.379,1.379,0,0,0,.917-.048c.07.036.135.069.153.08.148.1.167.115.057.041a2.742,2.742,0,0,1,.211.207,1.5,1.5,0,1,0,2.121-2.121,4.144,4.144,0,0,0-4.1-1.251A1.514,1.514,0,0,0,349.3,49.582Z" fill="#3ac1b0"/><path d="M353.844,88.94c-1.857.707-4.6,2.079-7.027,2.51,1.882-1.948,4.7-3.867,6.581-4.338s1.079-3.361-.8-2.893c-2.4.6-4.076,2.242-6.007,3.687a11.832,11.832,0,0,0-4.035,4.233,1.52,1.52,0,0,0,.9,2.2c2.408.616,5.072-.131,7.57-1.075a16.983,16.983,0,0,0-2.236,2.542c-.983,1.72-2.037,3.832-1.957,5.856.076,1.924,3.076,1.934,3,0-.19-4.83,5.99-6.85,5.91-11.28A1.511,1.511,0,0,0,353.844,88.94Z" fill="#3ac1b0"/><path d="M376.5,145v-7.333a1.5,1.5,0,0,0-3,0V145A1.5,1.5,0,0,0,376.5,145Z" fill="#3ac1b0"/><path d="M386.333,169.5a3.123,3.123,0,0,0-2.394,1.106,1.544,1.544,0,0,0,0,2.121,1.511,1.511,0,0,0,2.121,0,2.035,2.035,0,0,1,.189-.215l.005,0,.022-.007.056,0a1.5,1.5,0,0,0,0-3Z" fill="#3ac1b0"/><path d="M106.792,191.636a3.285,3.285,0,0,0-1.672-1.631,10.77,10.77,0,0,0-2.627-.591A20.557,20.557,0,0,0,99,188.833c-1.931-.042-1.931,2.958,0,3a27.621,27.621,0,0,1,3.539.61c.809.123,1.8.08,1.645,1.141-.192,1.279,1.449,2.777,2.507,1.459a14.245,14.245,0,0,0,.938-1.287A1.4,1.4,0,0,0,106.792,191.636Z" fill="#3ac1b0"/><path d="M159.273,156.606l-1.333,1.333a1.5,1.5,0,0,0,2.121,2.121q.666-.668,1.333-1.333a1.5,1.5,0,0,0-2.121-2.121Z" fill="#3ac1b0"/><path d="M425.935,43.554c-3.259,1.224-7.041,3.279-8.121,6.888-1.054,3.524,2.625,5.362,5.454,6.005,1.88.427,2.682-2.465.8-2.893a7.524,7.524,0,0,1-2.6-.93c-1.126-.773-.816-1.51-.106-2.539a10.888,10.888,0,0,1,5.37-3.638C428.523,45.774,427.747,42.873,425.935,43.554Z" fill="#3ac1b0"/><path d="M433.757,79.705a1.514,1.514,0,0,0-2.052.538q-.333.667-.667,1.333a1.537,1.537,0,0,0,.538,2.052,1.514,1.514,0,0,0,2.052-.538q.333-.667.667-1.333A1.537,1.537,0,0,0,433.757,79.705Z" fill="#3ac1b0"/><path d="M421,169.5a1.5,1.5,0,0,0,0,3A1.5,1.5,0,0,0,421,169.5Z" fill="#3ac1b0"/><path d="M406.22,231.935c-.222,1.249-.289,2.52-.467,3.775-.155,1.092-.264,2.778-1.147,3.563-1.446,1.285.682,3.4,2.121,2.121,2.274-2.021,1.9-5.938,2.386-8.662C409.449,230.844,406.558,230.034,406.22,231.935Z" fill="#3ac1b0"/><path d="M348.211,216.7c.014.009.031.012.045.021l-.031-.028-.01.006Z" fill="#3ac1b0"/><path d="M349.87,217.228c-.458-.126-.921-.3-1.383-.4a.763.763,0,0,1-.231-.108c.234.234-.7.215-.045-.021a1.628,1.628,0,0,0-.261-.152,1.3,1.3,0,0,1,.275.145,12.9,12.9,0,0,0,1.325-.963,14.259,14.259,0,0,1,1.541-.766c1.77-.755.244-3.34-1.514-2.59-2.014.859-5.8,3.036-4.165,5.743A5.1,5.1,0,0,0,348.629,220c1.094.308,2.381.3,2.2,1.664-.246,1.909,2.757,1.892,3,0C354.176,219.007,352.1,217.842,349.87,217.228Z" fill="#3ac1b0"/><path d="M139.273,265.939c-.81.745-2.61.25-3.606.227-1.931-.043-1.931,2.957,0,3,2.037.046,4.087.4,5.727-1.106C142.818,266.751,140.693,264.634,139.273,265.939Z" fill="#3ac1b0"/><path d="M209.935,136.22a1.486,1.486,0,0,0,.652,2.9c.016.007.022.009.048.022l-.042-.022h0l.115.056a2.889,2.889,0,0,1,.626.426c.433.365.829.77,1.269,1.127a1.544,1.544,0,0,0,2.121,0,1.51,1.51,0,0,0,0-2.121C213.3,137.443,211.993,135.8,209.935,136.22Z" fill="#3ac1b0"/><path d="M227.681,28.014a1.516,1.516,0,0,0-1.446-1.1,6.554,6.554,0,0,0-3.992,1.459,1.546,1.546,0,0,0-.538,2.052,1.511,1.511,0,0,0,2.052.538,6.814,6.814,0,0,1,1.358-.8c.071-.03.122-.04.187-.064a1.634,1.634,0,0,0,1.43.349A1.535,1.535,0,0,0,227.78,28.6Z" fill="#3ac1b0"/><path d="M59.667,44.167c-1.879-.065-3.6.717-5.494.694-2.139-.026-4.24.14-6.186-.893-1.453-.772-3.115,1.154-1.818,2.356l.437.4a1.429,1.429,0,0,0,1.161.4,13.949,13.949,0,0,0,4.755.7,25.438,25.438,0,0,0,3.735-.054,19.557,19.557,0,0,1,3.41-.61C61.6,47.234,61.6,44.234,59.667,44.167Z" fill="#3ac1b0"/><path d="M53.576,143.038c-2.374,1.615-5.513,2.729-6.689,5.563a1.51,1.51,0,0,0,1.048,1.845A1.536,1.536,0,0,0,49.78,149.4c.363-.875,1.65-1.536,2.4-2.006.961-.6,1.971-1.126,2.909-1.764C56.678,144.549,55.179,141.949,53.576,143.038Z" fill="#3ac1b0"/><path d="M71.4,250.887c-1.971-.268-3.675-1.633-5.732-1.387a1.548,1.548,0,0,0-1.5,1.5,1.508,1.508,0,0,0,1.5,1.5c1.714-.205,3.261,1.052,4.935,1.28a1.554,1.554,0,0,0,1.845-1.048A1.509,1.509,0,0,0,71.4,250.887Z" fill="#3ac1b0"/><path d="M379,292.167c-2.191.294-3.332,1.966-4.767,3.463a13.564,13.564,0,0,0-3.179,4.653c-1.606.53-.8,3.167,1.012,2.831l.542-.1a1.483,1.483,0,0,0,1.048-1.048,8.787,8.787,0,0,1,2.418-3.931c.684-.7,1.9-2.73,2.927-2.867C380.885,294.914,380.91,291.911,379,292.167Z" fill="#3ac1b0"/><path d="M386.424,341.7l-2.667-1.333a1.537,1.537,0,0,0-2.052.538,1.514,1.514,0,0,0,.538,2.052l2.667,1.333a1.537,1.537,0,0,0,2.052-.538A1.515,1.515,0,0,0,386.424,341.7Z" fill="#3ac1b0"/><path d="M423.7,283.576a44.124,44.124,0,0,1-4.432,5.7c-1.233,1.47.879,3.6,2.121,2.121a48.949,48.949,0,0,0,4.9-6.3A1.5,1.5,0,0,0,423.7,283.576Z" fill="#3ac1b0"/><path d="M457.273,153.939c-1.575,1.563-1.122,3.738-1.106,5.727a1.5,1.5,0,0,0,3,0c-.008-.963-.533-2.852.227-3.606A1.5,1.5,0,0,0,457.273,153.939Z" fill="#3ac1b0"/><path d="M69,335.5H63a1.5,1.5,0,0,0,0,3h6A1.5,1.5,0,0,0,69,335.5Z" fill="#3ac1b0"/><path d="M113.5,331c.023,5.163,1,10.583-1.795,15.243a1.5,1.5,0,0,0,2.59,1.514c3.106-5.187,2.231-10.988,2.205-16.757A1.5,1.5,0,0,0,113.5,331Z" fill="#3ac1b0"/><path d="M109,381.5a1.5,1.5,0,0,0,0,3A1.5,1.5,0,0,0,109,381.5Z" fill="#3ac1b0"/></g></svg>